<svg xmlns="http://www.w3.org/2000/svg" width="50%" height="50%" viewBox="0 0 20 20" fill="none">
  <path d="M9.6 0.8C14.46 0.8 18.4 4.74 18.4 9.6C18.4 14.46 14.46 18.4 9.6 18.4C4.74 18.4 0.8 14.46 0.8 9.6C0.8 4.74 4.74 0.8 9.6 0.8Z" fill="#231F20" stroke="#E2E8F0" stroke-width="1.6"/>
  <path d="M9.6 17.084C13.733 17.084 17.084 13.733 17.084 9.6C17.084 5.467 13.733 2.116 9.6 2.116C5.467 2.116 2.116 5.467 2.116 9.6C2.116 13.733 5.467 17.084 9.6 17.084Z" fill="#D7A211"/>
  <path d="M9.6 14.503C12.308 14.503 14.503 12.308 14.503 9.6C14.503 6.892 12.308 4.697 9.6 4.697C6.892 4.697 4.697 6.892 4.697 9.6C4.697 12.308 6.892 14.503 9.6 14.503Z" fill="#231F20"/>
  <path d="M9.6 13.987C12.023 13.987 13.987 12.023 13.987 9.6C13.987 7.177 12.023 5.213 9.6 5.213C7.177 5.213 5.213 7.177 5.213 9.6C5.213 12.023 7.177 13.987 9.6 13.987Z" fill="white"/>
  <path d="M10.89 7.62L9.351 9.159L8.878 8.686C8.685 8.492 8.422 8.384 8.148 8.384C7.875 8.384 7.612 8.492 7.418 8.686C7.225 8.88 7.116 9.142 7.116 9.416C7.116 9.69 7.225 9.952 7.418 10.146L8.621 11.349C8.815 11.542 9.077 11.651 9.351 11.651C9.625 11.651 9.887 11.542 10.081 11.349L12.352 9.078C12.54 8.883 12.644 8.622 12.641 8.351C12.638 8.081 12.529 7.822 12.337 7.631C12.146 7.44 11.887 7.331 11.616 7.329C11.345 7.327 11.085 7.432 10.89 7.62Z" fill="#231F20"/>
  <path d="M11.985 8.715L9.714 10.986C9.616 11.08 9.485 11.132 9.349 11.132C9.213 11.132 9.083 11.08 8.984 10.986L7.781 9.783C7.684 9.686 7.63 9.554 7.63 9.416C7.63 9.279 7.685 9.147 7.783 9.05C7.88 8.953 8.012 8.898 8.15 8.899C8.287 8.899 8.419 8.954 8.516 9.051L9.171 9.706C9.219 9.755 9.285 9.782 9.354 9.782C9.422 9.782 9.488 9.755 9.536 9.706L11.258 7.985C11.305 7.936 11.362 7.896 11.425 7.869C11.488 7.842 11.556 7.828 11.625 7.827C11.693 7.827 11.761 7.84 11.825 7.866C11.888 7.892 11.945 7.93 11.994 7.979C12.042 8.027 12.081 8.085 12.107 8.148C12.133 8.212 12.146 8.28 12.145 8.348C12.145 8.417 12.13 8.485 12.103 8.547C12.076 8.61 12.037 8.667 11.988 8.715H11.985Z" fill="#7CC05B"/>
</svg>
